<?xml version="1.0" encoding="utf-8"?>
<!-- Generator: Adobe Illustrator 17.1.0, SVG Export Plug-In . SVG Version: 6.00 Build 0)  -->
<!DOCTYPE svg PUBLIC "-//W3C//DTD SVG 1.1//EN" "http://www.w3.org/Graphics/SVG/1.1/DTD/svg11.dtd">
<svg version="1.1" id="Layer_1" xmlns="http://www.w3.org/2000/svg" xmlns:xlink="http://www.w3.org/1999/xlink" x="0px" y="0px"
	 viewBox="-94 46 800 699.9" enable-background="new -94 46 800 699.9" xml:space="preserve">
<path fill="#AB1B13" d="M437.7,322.3l53.6,53.1c6.2,6.1,16.2,6.1,22.4,0l187.7-186c6.2-6.1,6.2-16.1,0-22.2L583.7,50.6
	c-6.2-6.1-16.2-6.1-22.4,0l-187.7,186c-6.2,6.1-6.2,16.1,0,22.2l53.5,53.1L306,432L184.8,311.9l53.5-53.1c6.2-6.1,6.2-16.1,0-22.2
	L50.7,50.6c-6.2-6.1-16.2-6.1-22.4,0L-89.4,167.2c-6.2,6.1-6.2,16.1,0,22.2l187.7,186c6.2,6.1,16.2,6.1,22.4,0l53.6-53.1
	l121.2,120.1L192.3,544.5c-14-9.1-33-7.5-45.3,4.7l-147.4,146l51.1,50.7l147.4-146c12.3-12.2,13.9-31,4.7-44.9L306,452.9L409.1,555
	c-9.2,13.9-7.6,32.7,4.7,44.9l147.4,146l51.1-50.7L465,549.2c-12.3-12.2-31.3-13.8-45.3-4.7L316.6,442.4L437.7,322.3z M667.8,172.7
	c3.2,3.1,3.2,8.2,0,11.3L508.2,342.2c-3.1,3.1-8.3,3.1-11.4,0c-3.1-3.1-3.1-8.2,0-11.3l159.6-158.1
	C659.5,169.6,664.6,169.6,667.8,172.7z M637.9,143.1c3.2,3.1,3.2,8.2,0,11.3L478.3,312.5c-3.1,3.1-8.3,3.1-11.4,0
	c-3.2-3.1-3.1-8.2,0-11.3l159.6-158.1C629.6,140,634.7,140,637.9,143.1z M596.6,113.5c3.1-3.1,8.3-3.1,11.4,0
	c3.2,3.1,3.2,8.2,0,11.3L448.5,282.9c-3.1,3.1-8.3,3.1-11.4,0c-3.2-3.1-3.1-8.2,0-11.3L596.6,113.5z M407.2,253.3
	c-3.2-3.1-3.2-8.2,0-11.3L566.7,83.9c3.1-3.1,8.2-3.1,11.4,0c3.1,3.1,3.1,8.2,0,11.3L418.6,253.3
	C415.4,256.4,410.4,256.4,407.2,253.3z M33.9,83.9c3.2-3.1,8.3-3.1,11.4,0L204.8,242c3.2,3.1,3.2,8.2,0,11.3
	c-3.2,3.1-8.3,3.1-11.4,0L33.9,95.2C30.7,92.1,30.7,87,33.9,83.9z M115.2,342.2c-3.2,3.1-8.3,3.1-11.4,0L-55.8,184
	c-3.2-3.1-3.2-8.2,0-11.3c3.2-3.1,8.3-3.1,11.4,0l159.6,158.1C118.3,334,118.3,339,115.2,342.2z M145.1,312.5
	c-3.2,3.1-8.3,3.1-11.4,0L-25.9,154.4c-3.2-3.1-3.2-8.2,0-11.3c3.2-3.1,8.3-3.1,11.4,0L145,301.2
	C148.2,304.4,148.2,309.4,145.1,312.5z M163.5,282.9L4,124.8c-3.2-3.1-3.2-8.2,0-11.3c3.2-3.1,8.3-3.1,11.4,0L175,271.6
	c3.2,3.1,3.2,8.2,0,11.3S166.7,286,163.5,282.9z"/>
</svg>
