<?xml version="1.0" encoding="utf-8"?>
<!-- Generator: Adobe Illustrator 17.1.0, SVG Export Plug-In . SVG Version: 6.00 Build 0)  -->
<!DOCTYPE svg PUBLIC "-//W3C//DTD SVG 1.1//EN" "http://www.w3.org/Graphics/SVG/1.1/DTD/svg11.dtd">
<svg version="1.1" id="Layer_1" xmlns="http://www.w3.org/2000/svg" xmlns:xlink="http://www.w3.org/1999/xlink" x="0px" y="0px"
	 viewBox="0 0 38 60" enable-background="new 0 0 38 60" xml:space="preserve">
<path fill="#FFFFFF" d="M31.1,45.7c-3.8,0-6.9,3.2-6.9,7.1c0,3.9,3.1,7.1,6.9,7.1s6.9-3.2,6.9-7.1C38,48.9,34.9,45.7,31.1,45.7z
	 M31.1,56.2c-1.8,0-3.3-1.5-3.3-3.4c0-1.9,1.5-3.4,3.3-3.4c1.8,0,3.3,1.5,3.3,3.4C34.4,54.7,32.9,56.2,31.1,56.2z M18.1,40.6
	c1.5,0,2.9-0.2,4.3-0.5l2.4,5.7c1.2-1.1,2.7-1.9,4.3-2.3l-2.2-5.3c5.5-3.2,9.2-9.3,9.2-16.3c0-1-0.8-1.9-1.8-1.9H1.8
	c-1,0-1.8,0.8-1.8,1.9c0,7,3.7,13.1,9.2,16.3L1.5,56.5c-0.5,1.3,0,2.7,1.2,3.3C3,59.9,3.3,60,3.7,60c0.9,0,1.8-0.6,2.2-1.5l1.4-3.2
	h14.9c-0.2-0.8-0.3-1.6-0.3-2.5c0-0.9,0.1-1.7,0.3-2.5H9.4L13.7,40C15.1,40.4,16.6,40.6,18.1,40.6z M3.7,23.8h5.4
	c0.6,5.7,3.2,10.5,6.9,12.9C9.6,35.7,4.5,30.4,3.7,23.8z M7.3,15.3c0.2,0.4,0.5,0.7,0.8,1c0.3,0.3,0.6,0.6,0.9,0.8
	c0.1,0.1,0.2,0.1,0.3,0.1c0.2,0,0.3-0.2,0.2-0.4v0c-0.1-0.4-0.2-0.8-0.3-1.1c-0.1-0.4-0.2-0.7-0.2-1.1c-0.1-0.7-0.1-1.3,0-1.8
	c0.1-0.5,0.3-1,0.7-1.5c0.3-0.5,0.8-1.1,1.2-1.7c0.5-0.6,0.9-1.4,1.3-2.3c0.2-0.5,0.3-1,0.3-1.5c0-0.5,0-1-0.1-1.5
	c-0.2-1-0.6-1.8-1.1-2.5c-0.3-0.3-0.5-0.7-0.8-1c-0.3-0.3-0.6-0.6-0.9-0.8C9.4,0,9.3,0,9.2,0C9.1,0.1,8.9,0.3,9,0.4l0,0
	c0.1,0.4,0.2,0.8,0.3,1.1c0.1,0.4,0.2,0.7,0.3,1.1C9.7,3.3,9.8,4,9.8,4.5c0,0.6-0.2,1-0.4,1.5c-0.2,0.5-0.6,1-1,1.6
	C7.9,8.3,7.5,9,7.1,9.8c-0.2,0.4-0.4,0.9-0.5,1.4c-0.1,0.5-0.2,1-0.1,1.5c0,0.5,0.1,1,0.3,1.4C6.9,14.5,7.1,14.9,7.3,15.3z
	 M16.2,15.3c0.2,0.4,0.5,0.7,0.8,1c0.3,0.3,0.6,0.6,0.9,0.8c0.1,0.1,0.2,0.1,0.3,0.1c0.2,0,0.3-0.2,0.2-0.4l0,0
	c-0.1-0.4-0.2-0.8-0.3-1.1c-0.1-0.4-0.2-0.7-0.2-1.1c-0.1-0.7-0.1-1.3,0-1.8c0.1-0.5,0.3-1,0.7-1.5c0.3-0.5,0.8-1.1,1.2-1.7
	c0.5-0.6,0.9-1.4,1.3-2.3c0.2-0.5,0.3-1,0.3-1.5c0-0.5,0-1-0.1-1.5c-0.2-1-0.6-1.8-1.1-2.5c-0.3-0.3-0.5-0.7-0.8-1
	c-0.3-0.3-0.6-0.6-0.9-0.8C18.3,0,18.2,0,18.1,0c-0.2,0-0.3,0.2-0.2,0.4l0,0c0.1,0.4,0.2,0.8,0.3,1.1c0.1,0.4,0.2,0.7,0.3,1.1
	c0.2,0.7,0.2,1.3,0.2,1.9c0,0.6-0.2,1-0.4,1.5c-0.2,0.5-0.6,1-1,1.6C16.8,8.3,16.4,9,16,9.8c-0.2,0.4-0.4,0.9-0.5,1.4
	c-0.1,0.5-0.2,1-0.1,1.5c0,0.5,0.1,1,0.3,1.4C15.8,14.5,16,14.9,16.2,15.3z M25.1,15.3c0.2,0.4,0.5,0.7,0.8,1
	c0.3,0.3,0.6,0.6,0.9,0.8c0.1,0.1,0.2,0.1,0.3,0.1c0.2,0,0.3-0.2,0.2-0.4l0,0c-0.1-0.4-0.2-0.8-0.3-1.1c-0.1-0.4-0.2-0.7-0.2-1.1
	c-0.1-0.7-0.1-1.3,0-1.8c0.1-0.5,0.3-1,0.7-1.5c0.3-0.5,0.8-1.1,1.2-1.7c0.5-0.6,0.9-1.4,1.3-2.3c0.2-0.5,0.3-1,0.3-1.5
	c0-0.5,0-1-0.1-1.5c-0.2-1-0.6-1.8-1.1-2.5c-0.3-0.3-0.5-0.7-0.8-1c-0.3-0.3-0.6-0.6-0.9-0.8C27.2,0,27.1,0,27,0
	c-0.2,0-0.3,0.2-0.2,0.4l0,0c0.1,0.4,0.2,0.8,0.3,1.1c0.1,0.4,0.2,0.7,0.3,1.1c0.2,0.7,0.2,1.3,0.2,1.9c0,0.6-0.2,1-0.4,1.5
	c-0.2,0.5-0.6,1-1,1.6c-0.4,0.6-0.9,1.3-1.3,2.1c-0.2,0.4-0.4,0.9-0.5,1.4c-0.1,0.5-0.2,1-0.1,1.5c0,0.5,0.1,1,0.3,1.4
	C24.7,14.5,24.9,14.9,25.1,15.3z"/>
</svg>
